<svg width="66" height="79" viewBox="0 0 66 79" fill="none" xmlns="http://www.w3.org/2000/svg">
<path d="M32.9965 28.1684C27.1629 28.1684 22.422 32.9167 22.422 38.7594C22.422 44.6021 27.1629 49.3585 32.9965 49.3585C38.8301 49.3585 43.571 44.6103 43.571 38.7676C43.571 32.9249 38.8301 28.1684 32.9965 28.1684ZM32.9965 47.4329C28.2228 47.4329 24.3447 43.5488 24.3447 38.7676C24.3447 33.9865 28.2228 30.1023 32.9965 30.1023C37.7702 30.1023 41.6483 33.9865 41.6483 38.7676C41.6483 43.5488 37.7702 47.4329 32.9965 47.4329ZM32.9965 52.0412C21.1485 52.0412 11.5107 61.6941 11.5107 73.5605V75.4368C11.5107 77.4035 13.1047 79 15.0684 79H50.9164C52.8801 79 54.4741 77.4035 54.4741 75.4368V73.5605C54.4823 61.6858 44.8445 52.0412 32.9965 52.0412ZM52.5597 75.4368C52.5597 76.342 51.8284 77.0744 50.9246 77.0744H15.0766C14.1728 77.0744 13.4415 76.342 13.4415 75.4368V73.5605C13.4415 62.7556 22.2166 53.9669 33.0047 53.9669C43.7928 53.9669 52.5679 62.7556 52.5679 73.5605V75.4368H52.5597ZM26.5466 13.7098L25.4867 19.248C25.3553 19.931 25.6182 20.6058 26.1851 21.0091C26.4973 21.2313 26.8589 21.3465 27.2204 21.3465C27.508 21.3465 27.8037 21.2724 28.0749 21.1243L33.0047 18.4004L37.9345 21.1243C38.5425 21.4617 39.2656 21.4123 39.8243 21.0091C40.383 20.6058 40.6541 19.9228 40.5227 19.248L39.4628 13.7098L43.571 9.85854C44.0722 9.38125 44.2529 8.68177 44.0393 8.02344C43.8257 7.3651 43.267 6.90427 42.5768 6.81375L36.9896 6.11427L34.5987 1.01219C34.3029 0.386771 33.6867 0 32.9965 0C32.3063 0 31.6901 0.386771 31.4025 1.02042L29.0116 6.1225L23.4244 6.82198C22.7342 6.90427 22.1755 7.37333 21.9619 8.03167C21.7483 8.69 21.929 9.38948 22.4302 9.86677L26.5466 13.7098ZM29.3402 8.02344C29.9482 7.94938 30.4576 7.57083 30.7206 7.01948L32.9965 2.14781L35.2806 7.01948C35.5353 7.57083 36.053 7.94938 36.661 8.02344L41.9934 8.69L38.066 12.3684C37.6223 12.7881 37.4251 13.3889 37.5401 13.9896L38.559 19.2727L33.851 16.6723C33.3169 16.376 32.6843 16.376 32.1502 16.6723L27.4422 19.2727L28.4528 13.9896C28.5679 13.3889 28.3707 12.7799 27.927 12.3684L23.9996 8.69L29.3402 8.02344ZM65.9195 17.9231C65.7223 17.3059 65.1965 16.8698 64.5556 16.7875L59.8065 16.195L57.7771 11.8582C57.5059 11.274 56.9308 10.9036 56.2817 10.9036C55.6326 10.9036 55.0574 11.2657 54.7863 11.8582L52.7569 16.195L48.0078 16.7875C47.3669 16.8698 46.8411 17.2977 46.6439 17.9231C46.4467 18.5403 46.611 19.1986 47.0876 19.643L50.5795 22.9182L49.6757 27.6253C49.5525 28.259 49.799 28.8926 50.3248 29.2794C50.6124 29.4933 50.9575 29.6003 51.2944 29.6003C51.5655 29.6003 51.8448 29.5345 52.0913 29.3946L56.2817 27.0822L60.472 29.3946C61.039 29.7073 61.7209 29.6661 62.2468 29.2876C62.7726 28.9091 63.0191 28.2754 62.8959 27.6335L61.9921 22.9265L65.484 19.6512C65.9441 19.1986 66.1167 18.5403 65.9195 17.9231ZM60.5624 21.6098C60.1434 22.0048 59.9626 22.5726 60.0694 23.1322L60.8911 27.4114L57.0787 25.3047C56.8322 25.1648 56.5528 25.099 56.2817 25.099C56.0105 25.099 55.7312 25.1648 55.4847 25.3047L51.6723 27.4114L52.4939 23.1322C52.6008 22.5726 52.42 22.0048 52.001 21.6098L48.8212 18.6308L53.143 18.0877C53.71 18.0136 54.1947 17.668 54.433 17.1496L56.2817 13.1996L58.1304 17.1496C58.3686 17.668 58.8534 18.0219 59.4203 18.0877L63.7422 18.6308L60.5624 21.6098ZM15.6764 29.2711C16.2022 28.8926 16.4487 28.259 16.3255 27.6171L15.4217 22.91L18.9136 19.6348C19.3902 19.1904 19.5545 18.5321 19.3573 17.9149C19.1601 17.2977 18.6343 16.8616 17.9934 16.7793L13.2443 16.1868L11.2149 11.85C10.9437 11.2657 10.3686 10.8954 9.7195 10.8954C9.07041 10.8954 8.49527 11.2575 8.22412 11.85L6.19468 16.1868L1.44562 16.7875C0.80474 16.8698 0.278892 17.2977 0.0816989 17.9231C-0.115494 18.5403 0.0488333 19.1986 0.525383 19.643L4.01734 22.9182L3.11354 27.6253C2.9903 28.259 3.23679 28.8926 3.76263 29.2794C4.05021 29.4933 4.3953 29.6003 4.73217 29.6003C5.00331 29.6003 5.28266 29.5345 5.52915 29.3946L9.7195 27.0822L13.9099 29.3946C14.4686 29.6991 15.1505 29.6579 15.6764 29.2711ZM9.71129 25.099C9.44015 25.099 9.16079 25.1648 8.9143 25.3047L5.1019 27.4114L5.92354 23.1322C6.03035 22.5726 5.84959 22.0048 5.43056 21.6098L2.25082 18.6308L6.57263 18.0877C7.13956 18.0136 7.62433 17.668 7.8626 17.1496L9.71129 13.1996L11.56 17.1496C11.8065 17.668 12.283 18.0219 12.8499 18.0877L17.1718 18.6308L13.992 21.6098C13.573 22.0048 13.3922 22.5726 13.499 23.1322L14.3207 27.4114L10.5083 25.3047C10.2618 25.173 9.99064 25.099 9.71129 25.099Z" fill="#6EB8BB"/>
<circle cx="33" cy="11" r="9" fill="#6EB8BB" fill-opacity="0.25"/>
<path d="M26.5471 13.7098L25.4872 19.248C25.3557 19.931 25.6186 20.6058 26.1856 21.0091C26.4978 21.2313 26.8593 21.3465 27.2208 21.3465C27.5084 21.3465 27.8042 21.2724 28.0753 21.1243L33.0051 18.4004L37.935 21.1243C38.543 21.4617 39.266 21.4123 39.8247 21.0091C40.3834 20.6058 40.6546 19.9228 40.5231 19.248L39.4632 13.7098L43.5714 9.85854C44.0726 9.38125 44.2534 8.68177 44.0397 8.02344C43.8261 7.3651 43.2674 6.90427 42.5772 6.81375L36.9901 6.11427L34.5991 1.01219C34.3033 0.386771 33.6871 0 32.9969 0C32.3068 0 31.6905 0.386771 31.403 1.02042L29.012 6.1225L23.4248 6.82198C22.7347 6.90427 22.176 7.37333 21.9623 8.03167C21.7487 8.69 21.9295 9.38948 22.4307 9.86677L26.5471 13.7098ZM29.3406 8.02344C29.9487 7.94938 30.4581 7.57083 30.721 7.01948L32.9969 2.14781L35.2811 7.01948C35.5358 7.57083 36.0534 7.94938 36.6614 8.02344L41.9939 8.69L38.0664 12.3684C37.6227 12.7881 37.4255 13.3889 37.5406 13.9896L38.5594 19.2727L33.8514 16.6723C33.3174 16.376 32.6847 16.376 32.1506 16.6723L27.4427 19.2727L28.4533 13.9896C28.5683 13.3889 28.3711 12.7799 27.9274 12.3684L24 8.69L29.3406 8.02344Z" fill="#6EB8BB"/>
</svg>
