<svg width="71" height="71" viewBox="0 0 71 71" fill="none" xmlns="http://www.w3.org/2000/svg">
<rect width="26" height="26" rx="13" transform="matrix(-1 0 0 1 57 27)" fill="#DAEDEE"/>
<path d="M20.9021 22.1566C20.9021 21.7624 21.219 21.4464 21.6144 21.4464H34.5877C34.9832 21.4464 35.3001 21.7624 35.3001 22.1566C35.3001 22.5508 34.9832 22.8668 34.5877 22.8668L21.6144 22.8638C21.219 22.8728 20.9021 22.5478 20.9021 22.1566ZM21.6144 18.7501H40.9326C41.328 18.7501 41.645 18.4342 41.645 18.0399C41.645 17.6457 41.328 17.3298 40.9326 17.3298H21.6144C21.219 17.3298 20.9021 17.6457 20.9021 18.0399C20.9021 18.4342 21.219 18.7501 21.6144 18.7501ZM15.6107 17.6487V22.5478C15.6107 23.4868 14.8471 24.251 13.9023 24.251H8.98822C8.04642 24.251 7.2798 23.4897 7.2798 22.5478V17.6487C7.2798 16.7098 8.04347 15.9455 8.98822 15.9455H13.9023C14.838 15.9485 15.6107 16.7099 15.6107 17.6487ZM14.1799 17.6487C14.1799 17.4953 14.0562 17.3629 13.8932 17.3629H8.97911C8.82516 17.3629 8.69236 17.4862 8.69236 17.6487V22.5478C8.69236 22.7013 8.81612 22.8337 8.97911 22.8337H13.8932C14.0471 22.8337 14.1799 22.7103 14.1799 22.5478V17.6487ZM15.6107 32.1133V37.0124C15.6107 37.9513 14.8471 38.7156 13.9023 38.7156H8.98822C8.04642 38.7156 7.2798 37.9543 7.2798 37.0124V32.1133C7.2798 31.1744 8.04347 30.4101 8.98822 30.4101H13.9023C14.838 30.4131 15.6107 31.1745 15.6107 32.1133ZM14.1799 32.1133C14.1799 31.9599 14.0562 31.8274 13.8932 31.8274H8.97911C8.82516 31.8274 8.69236 31.9508 8.69236 32.1133V37.0124C8.69236 37.1659 8.81612 37.2983 8.97911 37.2983H13.8932C14.0471 37.2983 14.1799 37.1749 14.1799 37.0124V32.1133ZM15.6107 46.5864V51.4855C15.6107 52.4244 14.8471 53.1887 13.9023 53.1887H8.98822C8.04642 53.1887 7.2798 52.4274 7.2798 51.4855V46.5864C7.2798 45.6475 8.04347 44.8832 8.98822 44.8832H13.9023C14.838 44.8772 15.6107 45.6475 15.6107 46.5864ZM14.1799 46.5864C14.1799 46.4329 14.0562 46.3005 13.8932 46.3005H8.97911C8.82516 46.3005 8.69236 46.4239 8.69236 46.5864V51.4855C8.69236 51.639 8.81612 51.7714 8.97911 51.7714H13.8932C14.0471 51.7714 14.1799 51.648 14.1799 51.4855V46.5864ZM21.6144 47.682H25.5086C25.904 47.682 26.221 47.366 26.221 46.9718C26.221 46.5776 25.904 46.2616 25.5086 46.2616H21.6144C21.219 46.2616 20.9021 46.5776 20.9021 46.9718C20.9021 47.366 21.219 47.682 21.6144 47.682ZM27.3833 50.3843H21.6144C21.219 50.3843 20.9021 50.7003 20.9021 51.0945C20.9021 51.4887 21.219 51.8047 21.6144 51.8047H27.3864C27.7818 51.8047 28.0988 51.4887 28.0988 51.0945C28.0958 50.7003 27.7788 50.3843 27.3833 50.3843ZM70.4508 62.8428C70.4749 63.9291 70.0554 64.9613 69.2615 65.7557C68.4888 66.526 67.4926 66.9414 66.4332 66.9414H66.3396C65.2741 66.9173 64.284 66.4629 63.5565 65.6715L55.3973 56.7336V66.1614C55.3973 68.3101 53.6436 70.0584 51.4884 70.0584H11.4905C9.33526 70.0584 7.58155 68.3101 7.58155 66.1614V63.0559H4.46654C2.31132 63.0559 0.557617 61.3076 0.557617 59.1589V11.5647C0.557617 11.3811 0.636095 11.1945 0.76589 11.0651L11.258 0.586544C11.3908 0.454141 11.5749 0.378906 11.759 0.378906H44.4524C46.6076 0.378906 48.3613 2.12726 48.3613 4.2759V7.38142H51.4763C53.6315 7.38142 55.3852 9.12977 55.3852 11.2784V31.0369C58.298 33.7422 60.1363 37.585 60.1363 41.8521C60.1363 44.756 59.279 47.4613 57.8181 49.7576L69.1555 60.049C69.9705 60.7923 70.4263 61.7763 70.4505 62.8416L70.4508 62.8428ZM57.0038 50.9382C56.2462 51.9102 55.3738 52.7799 54.3988 53.5352L57.3569 56.7792L60.2456 53.8993L57.0038 50.9382ZM45.307 28.4919C37.9118 28.4919 31.8932 34.4924 31.8932 41.8648C31.8932 49.2375 37.9121 55.2377 45.307 55.2377C52.7023 55.2377 58.7208 49.2372 58.7208 41.8648C58.7208 34.4921 52.7019 28.4919 45.307 28.4919ZM48.3738 8.8082V27.3903C50.4294 27.8206 52.331 28.6933 53.9761 29.879V11.2876C53.9761 9.92447 52.8623 8.80797 51.4888 8.80797L48.3738 8.8082ZM2.98536 10.8484H8.56353C9.93087 10.8484 11.0508 9.73804 11.0508 8.36878V2.80763L2.98536 10.8484ZM4.46746 61.639H44.4654C45.8327 61.639 46.9526 60.5286 46.9526 59.1593V56.5713C46.4123 56.6315 45.872 56.6646 45.3136 56.6646C37.1304 56.6646 30.4687 50.0232 30.4687 41.865C30.4687 33.7069 37.1305 27.0654 45.3136 27.0654C45.869 27.0654 46.4123 27.1046 46.9526 27.1587V4.28565C46.9526 2.92248 45.8388 1.80598 44.4654 1.80598H12.4814V8.37816C12.4814 10.5268 10.7277 12.2752 8.57249 12.2752H1.9802V59.1591C1.9802 60.5223 3.091 61.639 4.46746 61.639ZM53.9761 55.1751L53.2335 54.3656C51.7666 55.2984 50.1276 55.9846 48.3738 56.3517V59.1623C48.3738 61.3109 46.6201 63.0593 44.4649 63.0593L9.00364 63.0653V66.1708C9.00364 67.534 10.1175 68.6505 11.4909 68.6505H51.4888C52.8561 68.6505 53.9761 67.5401 53.9761 66.1708L53.9761 55.1751ZM69.0203 62.8728C69.0052 62.2017 68.7185 61.5788 68.2083 61.1154L61.3081 54.8532L58.3259 57.8263L64.6073 64.7055C65.0721 65.2141 65.697 65.4999 66.37 65.515C67.0643 65.5391 67.7313 65.2622 68.2475 64.7446C68.7667 64.227 69.0354 63.565 69.0203 62.8728Z" fill="#6EB8BB"/>
<path d="M50.4626 35.3316L41.7143 45.5852L37.6 39.7916C37.4653 39.6012 37.2608 39.4721 37.0313 39.4323C36.8019 39.3926 36.566 39.4456 36.3754 39.5797C36.2801 39.6466 36.199 39.7318 36.1368 39.8303C36.0745 39.9289 36.0323 40.0388 36.0127 40.1537C35.993 40.2687 35.9963 40.3864 36.0222 40.5001C36.0482 40.6138 36.0964 40.7212 36.164 40.8161L40.9302 47.5282C41.0077 47.6376 41.1091 47.7279 41.2266 47.7922C41.3442 47.8565 41.4748 47.893 41.6086 47.8991C41.7358 47.8991 41.8616 47.8715 41.9771 47.8182C42.0927 47.7648 42.1954 47.687 42.2781 47.59L51.7929 36.5151C51.8803 36.4296 51.949 36.3268 51.9946 36.2132C52.0403 36.0997 52.0619 35.9779 52.058 35.8555C52.0542 35.7332 52.0251 35.6129 51.9724 35.5025C51.9198 35.392 51.8448 35.2937 51.7523 35.2139C51.6597 35.134 51.5516 35.0743 51.4348 35.0385C51.3181 35.0028 51.1951 34.9917 51.0739 35.0061C50.9526 35.0205 50.8356 35.06 50.7304 35.1221C50.6252 35.1843 50.534 35.2676 50.4626 35.367V35.3316Z" fill="#6EB8BB"/>
</svg>
