<svg width="95" height="191" viewBox="25 0 95 161" fill="none" xmlns="http://www.w3.org/2000/svg">
<circle cx="86" cy="108" r="11" fill="#DAEDEE"/>
<path d="M32.8995 75.0672C33.014 74.8199 33.1285 74.5638 33.2519 74.3165C33.3644 74.1241 33.5453 73.9815 33.7584 73.9174C33.9715 73.8532 34.2009 73.8722 34.4005 73.9706C34.6002 74.069 34.7553 74.2395 34.8348 74.4478C34.9142 74.6561 34.9121 74.8869 34.8288 75.0937C34.7231 75.3321 34.6086 75.5618 34.5029 75.8002C34.4334 75.9552 34.3208 76.0867 34.1786 76.1792C34.0364 76.2716 33.8706 76.3209 33.7012 76.3213C33.5765 76.3207 33.4534 76.2936 33.3399 76.2418C33.2337 76.1941 33.138 76.1258 33.0582 76.0408C32.9785 75.9558 32.9164 75.8558 32.8754 75.7466C32.8344 75.6373 32.8155 75.5211 32.8196 75.4045C32.8237 75.2878 32.8509 75.1732 32.8995 75.0672ZM59.2149 70.2539C58.9813 70.2539 58.7572 70.347 58.592 70.5126C58.4267 70.6782 58.3339 70.9028 58.3339 71.1371V87.1224C58.3339 87.2595 58.3658 87.3948 58.4269 87.5174C58.4881 87.64 58.5769 87.7467 58.6863 87.829L68.1306 94.9738C68.2831 95.0885 68.4686 95.1504 68.6592 95.1504C68.796 95.1504 68.9309 95.1185 69.0532 95.0572C69.1756 94.9959 69.282 94.9069 69.364 94.7972C69.5042 94.6098 69.5644 94.3742 69.5314 94.1424C69.4983 93.9105 69.3748 93.7013 69.1878 93.5607L60.0959 86.6808V71.1371C60.0959 70.9028 60.0031 70.6782 59.8379 70.5126C59.6727 70.347 59.4486 70.2539 59.2149 70.2539ZM97.2565 108.283C97.262 111.451 96.1865 114.526 94.2086 116.997C92.2307 119.467 89.4693 121.186 86.3829 121.866C83.2964 122.547 80.0706 122.149 77.2409 120.739C74.4112 119.328 72.1478 116.99 70.8265 114.112C67.2489 115.62 63.4044 116.389 59.5233 116.373H39.1017C38.868 116.373 38.6439 116.28 38.4787 116.114C38.3135 115.949 38.2207 115.724 38.2207 115.49C38.2207 115.256 38.3135 115.031 38.4787 114.865C38.6439 114.7 38.868 114.607 39.1017 114.607H49.5327C45.0046 112.939 40.956 110.179 37.7449 106.57H30.3622C30.1285 106.57 29.9044 106.477 29.7392 106.311C29.574 106.146 29.4812 105.921 29.4812 105.687C29.4812 105.452 29.574 105.228 29.7392 105.062C29.9044 104.897 30.1285 104.803 30.3622 104.803H36.2737C33.6403 101.352 31.8101 97.3537 30.9172 93.1015H18.9708C18.7372 93.1015 18.5131 93.0084 18.3479 92.8428C18.1827 92.6772 18.0898 92.4525 18.0898 92.2183C18.0898 91.9841 18.1827 91.7594 18.3479 91.5938C18.5131 91.4282 18.7372 91.3351 18.9708 91.3351H30.6265C30.0686 87.5064 30.2691 83.6049 31.2167 79.854C31.274 79.6268 31.4189 79.4316 31.6197 79.3116C31.8204 79.1915 32.0605 79.1563 32.2872 79.2137C32.5138 79.271 32.7084 79.4163 32.8282 79.6176C32.948 79.8188 32.9831 80.0595 32.9259 80.2867C31.6585 85.2511 31.7999 90.4716 33.3342 95.3597C34.8684 100.248 37.7345 104.609 41.6092 107.951C45.4838 111.294 50.213 113.485 55.2633 114.277C60.3137 115.069 65.4843 114.431 70.1922 112.434C69.9156 111.572 69.7267 110.685 69.6283 109.785C64.6015 112.025 58.9718 112.516 53.6342 111.181C48.2967 109.846 43.5576 106.76 40.1702 102.415C36.7829 98.0693 34.9417 92.7135 34.9394 87.1987C34.937 81.6839 36.7737 76.3266 40.1573 71.9783C43.541 67.63 48.2775 64.5404 53.6139 63.2005C58.9503 61.8606 64.5804 62.3473 69.6091 64.5833C74.6379 66.8193 78.7768 70.6763 81.3679 75.5411C83.959 80.4059 84.8535 85.9993 83.9093 91.4323C83.8897 91.5483 83.8474 91.6592 83.785 91.7588C83.7225 91.8584 83.6411 91.9447 83.5454 92.0128C83.4497 92.0809 83.3415 92.1294 83.2271 92.1556C83.1127 92.1817 82.9943 92.185 82.8786 92.1653C82.7629 92.1456 82.6522 92.1032 82.5528 92.0406C82.4535 91.978 82.3674 91.8964 82.2995 91.8005C82.2316 91.7045 82.1832 91.5961 82.1571 91.4814C82.131 91.3667 82.1277 91.248 82.1473 91.132C82.3768 89.8079 82.4918 88.4664 82.4909 87.1224C82.4879 82.1181 80.8604 77.2507 77.8542 73.2555C74.8481 69.2603 70.6266 66.3543 65.8275 64.9766C61.0284 63.5988 55.9124 63.8241 51.2523 65.6184C46.5922 67.4127 42.6411 70.6785 39.996 74.9226C37.3509 79.1666 36.1554 84.1584 36.5901 89.1437C37.0248 94.129 39.0661 98.837 42.4056 102.557C45.7451 106.276 50.2014 108.805 55.1014 109.762C60.0014 110.719 65.0788 110.051 69.5667 107.859C69.6177 105.856 70.1023 103.887 70.9869 102.09C71.8714 100.292 73.1349 98.709 74.6898 97.4492C76.2448 96.1894 78.0542 95.2832 79.9928 94.7933C81.9315 94.3034 83.9531 94.2414 85.918 94.6117C87.6937 88.3289 87.1822 81.6178 84.4748 75.6784C81.7675 69.7391 77.0409 64.9588 71.1403 62.1924C65.2396 59.426 58.5498 58.8538 52.267 60.5783C45.9842 62.3028 40.5182 66.2114 36.8463 71.6052C36.713 71.7952 36.5104 71.925 36.2823 71.9663C36.0542 72.0077 35.819 71.9572 35.6278 71.8259C35.4366 71.6946 35.3046 71.4931 35.2606 71.2649C35.2166 71.0368 35.2641 70.8005 35.3927 70.6072C36.1433 69.5102 36.9675 68.4657 37.8595 67.4808L32.5735 62.4467C32.4041 62.2851 32.3057 62.0626 32.2999 61.8283C32.2941 61.5939 32.3814 61.3668 32.5426 61.197C32.7039 61.0272 32.9258 60.9285 33.1596 60.9227C33.3934 60.9169 33.6199 61.0045 33.7893 61.1661L39.0753 66.2002C44.3145 61.0498 51.2986 58.0695 58.6335 57.8542V52.7848H50.2111C49.9774 52.7848 49.7534 52.6918 49.5881 52.5262C49.4229 52.3605 49.3301 52.1359 49.3301 51.9017V47.8656C49.3301 47.6314 49.4229 47.4067 49.5881 47.2411C49.7534 47.0755 49.9774 46.9824 50.2111 46.9824H68.8354C69.0691 46.9824 69.2932 47.0755 69.4584 47.2411C69.6236 47.4067 69.7164 47.6314 69.7164 47.8656V51.9017C69.7164 52.1359 69.6236 52.3605 69.4584 52.5262C69.2932 52.6918 69.0691 52.7848 68.8354 52.7848H60.4043V57.8277C67.7433 58.0399 74.7304 61.0278 79.9625 66.1913L85.2485 61.1484C85.4135 60.984 85.6368 60.8916 85.8696 60.8916C86.1023 60.8916 86.3256 60.984 86.4907 61.1484C86.5732 61.2305 86.6388 61.3282 86.6835 61.4358C86.7282 61.5435 86.7513 61.6589 86.7513 61.7755C86.7513 61.8921 86.7282 62.0075 86.6835 62.1151C86.6388 62.2228 86.5732 62.3204 86.4907 62.4025L81.2047 67.4366C84.5335 71.1119 86.8708 75.5786 87.9948 80.4132C89.1187 85.2479 88.9922 90.2902 87.6272 95.0621C90.4204 95.9622 92.8572 97.7268 94.5873 100.102C96.3175 102.478 97.252 105.342 97.2565 108.283ZM51.0921 51.0185H67.9544V48.7488H51.0921V51.0185ZM95.4945 108.248C95.4284 105.088 94.1343 102.079 91.8877 99.8615C89.6412 97.6441 86.6198 96.3936 83.4671 96.3763C80.3144 96.359 77.2796 97.5764 75.009 99.7691C72.7384 101.962 71.4116 104.956 71.311 108.115C71.3548 108.277 71.3548 108.448 71.311 108.61C71.3348 110.201 71.6709 111.772 72.3002 113.233C72.9296 114.694 73.8399 116.017 74.979 117.125C76.1182 118.233 77.464 119.106 78.9396 119.693C80.4152 120.28 81.9916 120.57 83.579 120.546C85.1663 120.522 86.7334 120.185 88.1908 119.554C89.6483 118.923 90.9675 118.011 92.0731 116.869C93.1787 115.727 94.0492 114.378 94.6347 112.899C95.2202 111.419 95.5094 109.839 95.4857 108.248H95.4945ZM90.5433 102.136L81.7949 112.39L77.6807 106.596C77.5459 106.406 77.3415 106.277 77.112 106.237C76.8825 106.197 76.6467 106.25 76.4561 106.384C76.3608 106.451 76.2797 106.536 76.2174 106.635C76.1552 106.734 76.113 106.843 76.0933 106.958C76.0737 107.073 76.0769 107.191 76.1029 107.305C76.1289 107.418 76.177 107.526 76.2446 107.621L81.0108 114.333C81.0884 114.442 81.1898 114.533 81.3073 114.597C81.4248 114.661 81.5555 114.698 81.6892 114.704C81.8165 114.704 81.9422 114.676 82.0578 114.623C82.1734 114.569 82.2761 114.492 82.3588 114.395L91.8736 103.32C91.961 103.234 92.0296 103.131 92.0753 103.018C92.1209 102.904 92.1425 102.783 92.1387 102.66C92.1349 102.538 92.1057 102.418 92.0531 102.307C92.0004 102.197 91.9255 102.098 91.8329 102.019C91.7404 101.939 91.6323 101.879 91.5155 101.843C91.3987 101.807 91.2758 101.796 91.1545 101.811C91.0332 101.825 90.9163 101.865 90.8111 101.927C90.7058 101.989 90.6146 102.072 90.5433 102.172V102.136ZM34.0007 114.607H31.9304C31.6967 114.607 31.4726 114.7 31.3074 114.865C31.1422 115.031 31.0494 115.256 31.0494 115.49C31.0494 115.724 31.1422 115.949 31.3074 116.114C31.4726 116.28 31.6967 116.373 31.9304 116.373H34.0007C34.2344 116.373 34.4584 116.28 34.6237 116.114C34.7889 115.949 34.8817 115.724 34.8817 115.49C34.8817 115.256 34.7889 115.031 34.6237 114.865C34.4584 114.7 34.2344 114.607 34.0007 114.607ZM25.5343 104.803H22.257C22.0233 104.803 21.7992 104.897 21.634 105.062C21.4688 105.228 21.376 105.452 21.376 105.687C21.376 105.921 21.4688 106.146 21.634 106.311C21.7992 106.477 22.0233 106.57 22.257 106.57H25.5343C25.7679 106.57 25.992 106.477 26.1573 106.311C26.3225 106.146 26.4153 105.921 26.4153 105.687C26.4153 105.452 26.3225 105.228 26.1573 105.062C25.992 104.897 25.7679 104.803 25.5343 104.803Z" fill="#6EB8BB"/>
</svg>
